# xmcd CD database file
#
# Track frame offsets:
#	150
#	19530
#	40403
#	53885
#	71615
#	84701
#	99746
#	114822
#	130214
#	142717
#	158960
#	171258
#	189016
#	205407
#
# Disc length: 2889 seconds
#
# Revision: 1
# Processed by: cddbd v1.5.2PL0 Copyright (c) Steve Scherf et al.
# Submitted via: CDex 1.51
#
DISCID=b70b470e
DTITLE=Norah Jones - Not Too Late
DYEAR=1900
DGENRE=Jazz
TTITLE0=Wish I Could
TTITLE1=Sinkin' Soon
TTITLE2=The Sun Doesn't Like You
TTITLE3=Until The End
TTITLE4=Not My Friend
TTITLE5=Thinking About You
TTITLE6=Broken
TTITLE7=My Dear Country
TTITLE8=Wake Me Up
TTITLE9=Be My Somebody
TTITLE10=Little Room
TTITLE11=Rosie's Lullaby
TTITLE12=Not Too Late
TTITLE13=2 Men
EXTD=
EXTT0=
EXTT1=
EXTT2=
EXTT3=
EXTT4=
EXTT5=
EXTT6=
EXTT7=
EXTT8=
EXTT9=
EXTT10=
EXTT11=
EXTT12=
EXTT13=
PLAYORDER=
